# xmcd
#
# Track frame offsets: 
#        150
#        13310
#        27920
#        40282
#        58233
#        67307
#        80186
#        92785
#        102249
#        112795
#        125272
#        138169
#        150090
#        167042
#        183414
#        198994
#        207619
#        215770
#        230141
#        248779
#        267314
#        282470
#
# Disc length: 3988 seconds
#
# Revision: 1
# Processed by: cddbd v1.5.2PL0 Copyright (c) Steve Scherf et al.
# Submitted via: ExactAudioCopyFreeDBPlugin 1.0
#
DISCID=4d0f9216
DTITLE=Various Artist - Lost Soul Gems from Sounds of Memphis [Kent]
DYEAR=2012
DGENRE=Soul
TTITLE0=Carl Sims - Pity a Fool
TTITLE1=Dan Greer - I Don't Want No One Way Love
TTITLE2=Otis Wheat - Tennessee Waltz
TTITLE3=Billy Cee and The Freedom Express - Save My Love
TTITLE4=Fran Farley - Stop Boy
TTITLE5=Rudolph Taylor - What's That You Got
TTITLE6=Barbara and The Browns - So Cruel
TTITLE7=Carroll Lloyd - I Can't Fight it No Longer
TTITLE8=William Bollinger - Your Arms Around Him
TTITLE9=Rudolph Taylor - Big City Lights
TTITLE10=Barbara and The Browns - I Don't Want to Have to Wait (alternat
TTITLE10=e version)
TTITLE11=William Bollinger - Teardrops
TTITLE12=Marjorie Ingram - Take a Look at Another Fool
TTITLE13=George Jackson - Things are Gettin' Better
TTITLE14=The Jacksonians - Vehicle
TTITLE15=Vision - Play the Game (version 2)
TTITLE16=Vision - Play The Game (Pt 2)
TTITLE17=Louis Williams - Stars are Out Tonight
TTITLE18=Demetrius (Dee Harvey) - Make it Easy on Yourself
TTITLE19=Erma Shaw - Mr. Candyman
TTITLE20=Takelia Kelly - When I Look Inside
TTITLE21=George Jackson and Linda Lucchesi - It's Hard to Say No
EXTD=
EXTT0=
EXTT1=
EXTT2=
EXTT3=
EXTT4=
EXTT5=
EXTT6=
EXTT7=
EXTT8=
EXTT9=
EXTT10=
EXTT11=
EXTT12=
EXTT13=
EXTT14=
EXTT15=
EXTT16=
EXTT17=
EXTT18=
EXTT19=
EXTT20=
EXTT21=
PLAYORDER=
